<svg xmlns="http://www.w3.org/2000/svg" xmlns:xlink="http://www.w3.org/1999/xlink" width="40" zoomAndPan="magnify" viewBox="0 0 30 30.000001" height="40" preserveAspectRatio="xMidYMid meet" version="1.0"><defs><clipPath id="9f48314953"><path d="M 0.484375 4.71875 L 29.515625 4.71875 L 29.515625 24.316406 L 0.484375 24.316406 Z M 0.484375 4.71875 " clip-rule="nonzero"/></clipPath></defs><g clip-path="url(#9f48314953)"><path fill="#ffffff" d="M 3.15625 16.921875 C 3.171875 16.859375 3.1875 16.796875 3.203125 16.734375 C 3.175781 16.699219 3.15625 16.667969 3.148438 16.632812 C 2.960938 16.597656 2.773438 16.5625 2.585938 16.507812 C 2.527344 16.488281 2.464844 16.425781 2.472656 16.355469 C 2.609375 15.183594 2.671875 14.0625 2.675781 12.886719 C 2.53125 12.820312 2.382812 12.753906 2.230469 12.691406 C 2.152344 14.03125 2.066406 15.367188 1.910156 16.699219 C 1.9375 16.71875 1.957031 16.742188 1.96875 16.773438 C 2.363281 16.832031 2.761719 16.847656 3.15625 16.921875 Z M 3.320312 18.359375 C 3.332031 18.34375 3.347656 18.328125 3.359375 18.316406 C 3.183594 18.125 3.039062 17.9375 3.050781 17.640625 C 3.050781 17.574219 3.058594 17.503906 3.066406 17.433594 C 2.675781 17.355469 2.277344 17.335938 1.878906 17.28125 C 1.871094 17.316406 1.859375 17.355469 1.847656 17.390625 C 1.9375 17.40625 2.019531 17.429688 2.089844 17.449219 C 2.253906 17.496094 2.382812 17.542969 2.472656 17.578125 C 2.660156 17.648438 2.730469 17.683594 2.726562 17.722656 C 2.722656 17.753906 2.636719 17.78125 2.429688 17.757812 C 2.328125 17.742188 2.195312 17.714844 2.03125 17.679688 C 1.957031 17.664062 1.871094 17.648438 1.78125 17.636719 C 1.761719 17.714844 1.742188 17.789062 1.722656 17.863281 C 2.023438 17.933594 2.238281 17.988281 2.382812 18.019531 C 2.558594 18.058594 2.628906 18.097656 2.628906 18.132812 C 2.628906 18.167969 2.554688 18.195312 2.359375 18.203125 C 2.261719 18.207031 2.136719 18.191406 1.976562 18.171875 C 1.882812 18.15625 1.773438 18.136719 1.65625 18.109375 C 1.648438 18.152344 1.636719 18.191406 1.625 18.230469 C 2.160156 18.292969 2.695312 18.3125 3.226562 18.421875 C 3.226562 18.421875 3.226562 18.421875 3.226562 18.417969 C 3.242188 18.410156 3.257812 18.402344 3.273438 18.394531 C 3.28125 18.386719 3.292969 18.378906 3.300781 18.371094 C 3.304688 18.371094 3.308594 18.367188 3.320312 18.359375 Z M 3.828125 16.113281 C 3.785156 16.085938 3.746094 16.046875 3.699219 15.992188 C 3.589844 15.851562 3.667969 15.746094 3.40625 15.8125 C 3.332031 15.832031 3.230469 15.789062 3.214844 15.703125 C 3.078125 14.90625 3.347656 14.03125 3.390625 13.214844 C 3.257812 13.152344 3.125 13.089844 2.992188 13.03125 C 2.996094 13.746094 3.039062 14.476562 2.949219 15.1875 C 2.90625 15.503906 2.847656 15.8125 2.808594 16.128906 C 2.796875 16.277344 3.035156 16.332031 3.25 16.359375 C 3.296875 16.324219 3.347656 16.304688 3.40625 16.300781 C 3.546875 16.242188 3.6875 16.175781 3.828125 16.113281 Z M 5.308594 15.441406 C 5.457031 15.371094 5.609375 15.308594 5.761719 15.246094 C 5.195312 15.148438 4.730469 14.609375 4.734375 13.898438 C 4.738281 13.894531 4.738281 13.890625 4.738281 13.886719 C 4.390625 13.710938 4.042969 13.535156 3.691406 13.363281 C 3.632812 14.054688 3.421875 14.804688 3.496094 15.484375 C 3.847656 15.464844 3.867188 15.742188 4.203125 15.949219 C 4.574219 15.777344 4.941406 15.609375 5.308594 15.441406 Z M 5.054688 14.054688 C 5.140625 14.769531 5.832031 15.222656 6.441406 14.773438 C 5.980469 14.535156 5.519531 14.292969 5.054688 14.054688 Z M 8.425781 15.824219 C 8.308594 15.734375 8.195312 15.640625 8.085938 15.535156 C 8.042969 15.539062 7.996094 15.53125 7.945312 15.507812 C 7.8125 15.445312 7.679688 15.382812 7.546875 15.320312 C 7.25 15.59375 6.988281 15.921875 6.628906 16.105469 C 6.242188 16.300781 5.867188 16.503906 5.496094 16.722656 C 5.800781 16.847656 6.085938 17.003906 6.363281 17.171875 C 6.539062 16.847656 6.746094 16.78125 7.074219 16.617188 C 7.539062 16.375 7.984375 16.109375 8.425781 15.824219 Z M 8.28125 13.339844 C 8.296875 13.257812 8.308594 13.179688 8.324219 13.097656 C 7.085938 12.40625 5.878906 11.644531 4.675781 10.894531 C 3.644531 10.253906 2.695312 9.484375 1.617188 8.921875 C 1.601562 8.925781 1.582031 8.925781 1.566406 8.921875 C 1.554688 8.949219 1.546875 8.976562 1.535156 9.003906 C 1.679688 9.121094 1.808594 9.242188 1.925781 9.347656 C 2.011719 9.429688 2.09375 9.496094 2.171875 9.558594 C 2.25 9.621094 2.332031 9.679688 2.410156 9.738281 C 2.722656 9.960938 2.964844 10.140625 3.144531 10.28125 C 3.503906 10.558594 3.625 10.683594 3.605469 10.714844 C 3.582031 10.742188 3.421875 10.667969 3.035156 10.429688 C 2.839844 10.308594 2.59375 10.148438 2.277344 9.933594 C 2.199219 9.882812 2.113281 9.824219 2.023438 9.757812 C 1.9375 9.691406 1.84375 9.621094 1.757812 9.539062 C 1.648438 9.449219 1.539062 9.347656 1.425781 9.25 C 1.363281 9.386719 1.292969 9.519531 1.222656 9.65625 C 1.78125 10.113281 2.292969 10.449219 2.726562 10.710938 C 3.210938 11.007812 3.59375 11.21875 3.894531 11.378906 C 4.488281 11.699219 4.714844 11.824219 4.699219 11.863281 C 4.683594 11.890625 4.429688 11.828125 3.808594 11.542969 C 3.5 11.402344 3.101562 11.207031 2.601562 10.917969 C 2.289062 10.738281 1.941406 10.519531 1.5625 10.246094 C 1.5625 10.253906 1.5625 10.265625 1.5625 10.277344 C 1.546875 10.464844 1.457031 10.609375 1.324219 10.710938 C 1.363281 10.738281 1.40625 10.765625 1.453125 10.789062 C 1.566406 10.851562 1.683594 10.898438 1.800781 10.9375 C 2.035156 11.023438 2.253906 11.085938 2.457031 11.167969 C 2.839844 11.332031 3.132812 11.464844 3.351562 11.589844 C 3.570312 11.703125 3.710938 11.800781 3.796875 11.871094 C 3.882812 11.9375 3.914062 11.976562 3.90625 11.992188 C 3.898438 12.007812 3.847656 12 3.746094 11.957031 C 3.648438 11.917969 3.492188 11.847656 3.269531 11.753906 C 3.046875 11.65625 2.746094 11.539062 2.367188 11.390625 C 2.183594 11.324219 1.960938 11.265625 1.714844 11.179688 C 1.59375 11.136719 1.460938 11.089844 1.332031 11.019531 C 1.265625 10.984375 1.199219 10.945312 1.136719 10.894531 C 1.125 11.003906 1.113281 11.113281 1.101562 11.222656 C 1.246094 11.289062 1.386719 11.355469 1.511719 11.414062 C 1.699219 11.492188 1.867188 11.566406 2.019531 11.636719 C 2.328125 11.761719 2.566406 11.863281 2.75 11.9375 C 3.121094 12.074219 3.253906 12.152344 3.246094 12.1875 C 3.238281 12.222656 3.085938 12.207031 2.691406 12.113281 C 2.496094 12.0625 2.246094 11.972656 1.929688 11.859375 C 1.773438 11.796875 1.597656 11.722656 1.40625 11.644531 C 1.300781 11.597656 1.191406 11.546875 1.070312 11.492188 C 1.066406 11.558594 1.0625 11.625 1.058594 11.691406 C 3.5 12.511719 5.71875 13.890625 8.039062 14.980469 C 8.046875 14.910156 8.050781 14.839844 8.058594 14.769531 C 7.757812 14.648438 7.527344 14.476562 7.3125 14.332031 C 7.1875 14.246094 7.066406 14.164062 6.953125 14.097656 C 6.835938 14.027344 6.710938 13.972656 6.601562 13.914062 C 6.15625 13.6875 5.808594 13.503906 5.542969 13.359375 C 5.011719 13.074219 4.824219 12.945312 4.835938 12.914062 C 4.855469 12.878906 5.074219 12.953125 5.621094 13.195312 C 5.898438 13.3125 6.253906 13.480469 6.714844 13.703125 C 6.828125 13.757812 6.949219 13.808594 7.074219 13.882812 C 7.203125 13.953125 7.328125 14.039062 7.457031 14.121094 C 7.652344 14.253906 7.859375 14.398438 8.085938 14.5 C 8.101562 14.386719 8.117188 14.273438 8.136719 14.160156 C 7.871094 14.03125 7.621094 13.910156 7.402344 13.789062 C 7.136719 13.636719 6.898438 13.496094 6.683594 13.375 C 6.265625 13.140625 5.90625 13 5.636719 12.875 C 5.363281 12.757812 5.1875 12.648438 5.078125 12.574219 C 4.96875 12.503906 4.925781 12.460938 4.9375 12.445312 C 4.945312 12.433594 5.003906 12.441406 5.125 12.484375 C 5.246094 12.53125 5.429688 12.609375 5.707031 12.703125 C 5.980469 12.804688 6.351562 12.929688 6.804688 13.167969 C 7.019531 13.285156 7.257812 13.417969 7.523438 13.5625 C 7.722656 13.671875 7.945312 13.777344 8.179688 13.890625 C 8.199219 13.796875 8.214844 13.703125 8.234375 13.605469 C 7.957031 13.46875 7.703125 13.339844 7.46875 13.226562 C 7.207031 13.085938 6.96875 12.957031 6.757812 12.84375 C 6.324219 12.625 5.980469 12.464844 5.722656 12.320312 C 5.597656 12.25 5.488281 12.191406 5.402344 12.132812 C 5.316406 12.074219 5.25 12.027344 5.195312 11.988281 C 5.09375 11.90625 5.054688 11.867188 5.066406 11.851562 C 5.074219 11.835938 5.132812 11.847656 5.25 11.898438 C 5.308594 11.925781 5.382812 11.960938 5.472656 12.003906 C 5.5625 12.046875 5.675781 12.097656 5.804688 12.15625 C 6.066406 12.273438 6.417969 12.417969 6.863281 12.628906 C 7.082031 12.738281 7.320312 12.859375 7.589844 13 C 7.800781 13.105469 8.035156 13.21875 8.28125 13.339844 Z M 10.730469 16.660156 C 10.78125 16 10.871094 15.335938 11.078125 14.707031 C 10.320312 14.246094 9.507812 13.863281 8.8125 13.308594 C 8.699219 13.953125 8.554688 14.59375 8.554688 15.253906 C 9.199219 15.835938 10.015625 16.171875 10.730469 16.660156 Z M 10.726562 18.011719 C 10.851562 18.066406 11.585938 18.375 11.835938 18.292969 C 11.457031 18.023438 11.113281 17.714844 10.839844 17.359375 C 10.828125 17.351562 10.816406 17.347656 10.800781 17.339844 C 10.769531 17.328125 10.738281 17.3125 10.710938 17.289062 C 10.609375 17.207031 10.511719 17.132812 10.410156 17.0625 C 10.402344 17.066406 10.394531 17.070312 10.382812 17.074219 C 10.179688 17.113281 9.574219 17.410156 10.066406 17.699219 C 10.15625 17.75 10.242188 17.796875 10.339844 17.835938 C 10.46875 17.894531 10.597656 17.957031 10.726562 18.011719 Z M 12.339844 9.75 C 12.1875 9.699219 12.058594 9.640625 12.027344 9.527344 C 12 9.417969 11.96875 9.105469 11.882812 9.054688 C 11.71875 8.964844 11.570312 8.867188 11.421875 8.75 C 10.546875 8.054688 9.613281 7.632812 8.964844 6.691406 C 8.484375 6.855469 7.984375 6.878906 7.503906 7.03125 C 6.992188 7.191406 6.503906 7.40625 6.019531 7.628906 C 5.351562 7.941406 4.691406 8.234375 3.980469 8.402344 C 4.214844 8.617188 4.449219 8.859375 4.722656 8.972656 C 5.097656 9.132812 5.402344 9.105469 5.789062 9.144531 C 6.085938 9.175781 6.492188 9.199219 6.664062 9.492188 C 6.71875 9.585938 6.738281 9.742188 6.699219 9.839844 C 6.664062 9.925781 6.988281 10.125 7.015625 10.210938 C 7.148438 10.699219 8.15625 11.359375 8.679688 11.5625 C 8.808594 11.078125 9.253906 10.617188 9.738281 10.429688 C 10.507812 10.132812 11.425781 9.847656 12.339844 9.75 Z M 11.925781 19.011719 C 12.386719 19.171875 13.03125 19.582031 13.410156 19.210938 C 12.972656 18.980469 12.53125 18.746094 12.117188 18.480469 C 11.792969 18.835938 10.84375 18.402344 10.511719 18.257812 C 10.160156 18.097656 9.75 17.976562 9.609375 17.585938 C 9.488281 17.246094 9.78125 16.976562 10.078125 16.84375 C 9.621094 16.5625 9.140625 16.320312 8.695312 16.023438 C 8.386719 16.222656 8.078125 16.425781 7.753906 16.609375 C 7.496094 16.75 7.085938 16.890625 6.824219 17.113281 C 7.144531 17.085938 7.480469 17.019531 7.742188 17.238281 C 8.308594 17.714844 9.203125 18.003906 9.890625 18.269531 C 10.5625 18.53125 11.242188 18.773438 11.925781 19.011719 Z M 13.023438 9.710938 C 13.410156 9.714844 13.78125 9.761719 14.136719 9.859375 C 13.292969 9.410156 12.46875 8.863281 11.699219 8.3125 C 10.773438 7.652344 10.03125 6.78125 9.082031 6.148438 C 9.066406 6.140625 9.058594 6.125 9.046875 6.117188 C 8.027344 6.519531 6.945312 6.78125 5.902344 7.113281 C 4.847656 7.441406 3.867188 7.972656 2.808594 8.285156 C 3.851562 9.125 4.980469 9.777344 6.148438 10.421875 C 7.03125 10.910156 7.800781 11.582031 8.675781 12.074219 C 8.65625 12.011719 8.644531 11.945312 8.640625 11.878906 C 8.113281 11.695312 7.535156 11.269531 7.128906 10.898438 C 6.878906 10.667969 6.65625 10.25 6.410156 10.082031 C 6.355469 10.046875 6.3125 9.972656 6.339844 9.90625 C 6.574219 9.3125 5.3125 9.472656 5.046875 9.40625 C 4.421875 9.253906 4.085938 8.835938 3.578125 8.464844 C 3.578125 8.464844 3.574219 8.460938 3.570312 8.457031 C 3.441406 8.410156 3.40625 8.195312 3.574219 8.167969 C 4.65625 7.976562 5.613281 7.453125 6.613281 7.023438 C 7.378906 6.695312 8.199219 6.660156 8.957031 6.363281 C 9.007812 6.34375 9.046875 6.347656 9.082031 6.371094 C 9.113281 6.378906 9.140625 6.398438 9.164062 6.433594 C 9.84375 7.492188 11.015625 8.113281 12.042969 8.785156 C 12.226562 8.910156 12.378906 9.011719 12.324219 9.257812 C 12.335938 9.207031 12.921875 9.632812 13.023438 9.710938 Z M 14.070312 10.167969 C 13.148438 9.90625 12.167969 10.085938 11.246094 10.316406 C 10.839844 10.417969 10.414062 10.503906 10.019531 10.652344 C 9.464844 10.867188 8.371094 11.699219 9.21875 12.339844 C 10.238281 12.097656 11.242188 11.558594 12.160156 11.113281 C 12.796875 10.804688 13.425781 10.472656 14.070312 10.167969 Z M 13.984375 21.839844 C 14 21.742188 14.019531 21.644531 14.042969 21.546875 C 12.070312 20.464844 9.875 20.058594 7.808594 19.207031 C 6.949219 18.847656 6.125 18.414062 5.28125 18.023438 C 4.714844 17.757812 4.140625 17.488281 3.640625 17.113281 C 3.621094 17.195312 3.605469 17.277344 3.59375 17.359375 C 3.953125 17.609375 4.320312 17.804688 4.664062 17.984375 C 5.074219 18.191406 5.453125 18.378906 5.777344 18.582031 C 5.941406 18.675781 6.089844 18.765625 6.234375 18.851562 C 6.378906 18.933594 6.507812 19.019531 6.644531 19.078125 C 6.910156 19.203125 7.132812 19.328125 7.34375 19.402344 C 7.550781 19.484375 7.722656 19.554688 7.871094 19.613281 C 8.019531 19.664062 8.140625 19.703125 8.230469 19.738281 C 8.414062 19.808594 8.492188 19.847656 8.488281 19.867188 C 8.484375 19.882812 8.398438 19.875 8.203125 19.835938 C 8.105469 19.816406 7.980469 19.789062 7.824219 19.75 C 7.671875 19.707031 7.492188 19.644531 7.277344 19.574219 C 7.058594 19.507812 6.824219 19.390625 6.546875 19.273438 C 6.40625 19.21875 6.269531 19.132812 6.121094 19.054688 C 5.976562 18.96875 5.820312 18.878906 5.652344 18.789062 C 5.335938 18.597656 4.960938 18.417969 4.546875 18.210938 C 4.242188 18.054688 3.914062 17.886719 3.582031 17.667969 C 3.605469 17.828125 3.691406 17.914062 3.839844 18.066406 C 3.859375 18.085938 3.871094 18.109375 3.882812 18.128906 C 5.386719 19.21875 7.203125 19.78125 8.925781 20.429688 C 10.589844 21.054688 12.257812 21.675781 13.914062 22.320312 C 13.925781 22.25 13.9375 22.175781 13.949219 22.105469 C 13.300781 21.859375 12.8125 21.570312 12.375 21.398438 C 11.878906 21.195312 11.480469 21.058594 11.1875 20.925781 C 10.59375 20.667969 10.378906 20.546875 10.394531 20.515625 C 10.410156 20.480469 10.648438 20.542969 11.25 20.753906 C 11.554688 20.863281 11.957031 20.984375 12.460938 21.175781 C 12.90625 21.339844 13.394531 21.613281 13.984375 21.839844 Z M 14.296875 20.441406 C 14.371094 20.496094 14.617188 20.148438 14.753906 19.972656 C 14.425781 19.757812 14.070312 19.558594 13.699219 19.363281 C 13.621094 19.472656 13.527344 19.609375 13.496094 19.671875 C 13.464844 19.738281 13.382812 19.757812 13.320312 19.746094 C 12.03125 19.464844 10.742188 18.960938 9.519531 18.457031 C 9 18.242188 8.328125 18.09375 7.882812 17.75 C 7.722656 17.628906 7.421875 17.375 7.246094 17.398438 C 7.085938 17.417969 6.941406 17.433594 6.792969 17.4375 C 7.203125 17.695312 7.617188 17.949219 8.085938 18.113281 C 9.097656 18.46875 10.117188 18.8125 11.125 19.160156 C 11.9375 19.445312 12.699219 19.820312 13.519531 20.089844 C 13.789062 20.179688 14.070312 20.265625 14.296875 20.441406 Z M 15.902344 21.804688 C 15.382812 22.074219 14.867188 22.355469 14.410156 22.722656 C 14.382812 22.746094 14.355469 22.761719 14.328125 22.769531 C 14.289062 22.890625 14.179688 22.980469 14.027344 22.921875 C 12.085938 22.15625 10.125 21.4375 8.171875 20.695312 C 6.648438 20.117188 5.078125 19.601562 3.734375 18.660156 C 3.667969 18.734375 3.59375 18.800781 3.503906 18.851562 C 3.746094 19.285156 5.035156 19.78125 5.351562 19.953125 C 6.148438 20.390625 6.898438 20.890625 7.730469 21.265625 C 9.757812 22.183594 11.980469 22.558594 13.984375 23.507812 C 14.703125 23.027344 15.316406 22.429688 15.902344 21.804688 Z M 15.015625 9.746094 C 15.019531 9.738281 15.027344 9.730469 15.03125 9.726562 C 14.355469 9.371094 13.691406 9 13.042969 8.59375 C 11.652344 7.71875 10.167969 6.726562 9.203125 5.359375 C 8.644531 5.652344 8.042969 5.824219 7.429688 6.007812 C 6.714844 6.21875 6.03125 6.511719 5.320312 6.730469 C 4.566406 6.964844 3.816406 7.246094 3.054688 7.449219 C 2.507812 7.59375 1.808594 7.710938 1.371094 8.109375 C 1.492188 8.1875 1.597656 8.273438 1.691406 8.378906 C 2.847656 8.949219 3.847656 9.765625 4.9375 10.445312 C 6.074219 11.160156 7.222656 11.878906 8.394531 12.539062 C 8.4375 12.488281 8.496094 12.453125 8.574219 12.445312 C 8.609375 12.445312 8.640625 12.4375 8.675781 12.433594 C 7.644531 11.886719 6.765625 11.082031 5.71875 10.550781 C 4.542969 9.953125 3.425781 9.210938 2.410156 8.363281 C 2.292969 8.3125 2.265625 8.113281 2.425781 8.074219 C 3.597656 7.777344 4.664062 7.167969 5.820312 6.808594 C 6.914062 6.46875 8.054688 6.191406 9.117188 5.753906 C 9.242188 5.703125 9.316406 5.820312 9.300781 5.925781 C 10.21875 6.554688 10.921875 7.449219 11.859375 8.046875 C 12.339844 8.351562 12.8125 8.675781 13.296875 8.988281 C 13.777344 9.296875 14.269531 9.59375 14.78125 9.84375 C 14.859375 9.808594 14.9375 9.777344 15.015625 9.746094 Z M 15.554688 20.503906 C 15.375 20.382812 15.195312 20.261719 15.015625 20.140625 C 14.800781 20.378906 14.597656 20.601562 14.335938 20.78125 C 14.269531 20.832031 14.160156 20.796875 14.125 20.726562 C 13.898438 20.324219 12.640625 20.167969 12.246094 20.003906 C 11.847656 19.835938 11.46875 19.5625 11.042969 19.464844 C 10.65625 19.371094 10.273438 19.285156 9.90625 19.132812 C 9.101562 18.796875 8.246094 18.5625 7.453125 18.195312 C 6.636719 17.820312 5.976562 17.175781 5.101562 16.914062 C 4.972656 16.875 4.972656 16.722656 5.046875 16.648438 C 5.046875 16.644531 5.054688 16.640625 5.054688 16.636719 C 5.058594 16.636719 5.0625 16.632812 5.066406 16.628906 C 5.074219 16.621094 5.082031 16.609375 5.097656 16.601562 C 5.5 16.351562 5.914062 16.117188 6.339844 15.902344 C 6.699219 15.722656 6.957031 15.441406 7.246094 15.175781 C 7.21875 15.164062 7.195312 15.148438 7.171875 15.136719 C 6.667969 15.464844 6.109375 15.625 5.574219 15.886719 C 5.019531 16.15625 4.457031 16.40625 3.894531 16.652344 C 4.511719 17.140625 5.269531 17.4375 5.976562 17.773438 C 6.910156 18.21875 7.824219 18.675781 8.796875 19.042969 C 10.640625 19.738281 12.523438 20.128906 14.269531 21.078125 C 14.683594 20.859375 15.121094 20.683594 15.554688 20.503906 Z M 16.296875 21.015625 C 16.21875 20.960938 16.140625 20.90625 16.058594 20.851562 C 15.574219 21.0625 15.078125 21.246094 14.609375 21.488281 C 14.605469 21.496094 14.605469 21.496094 14.605469 21.503906 C 14.519531 21.675781 14.484375 21.863281 14.460938 22.050781 C 15.042969 21.65625 15.675781 21.34375 16.296875 21.015625 Z M 17.839844 11.171875 C 17.050781 10.707031 16.203125 10.285156 15.296875 10.183594 C 15.285156 10.191406 15.265625 10.199219 15.25 10.207031 C 13.910156 10.746094 12.625 11.460938 11.308594 12.0625 C 10.585938 12.386719 9.875 12.71875 9.109375 12.882812 C 9.777344 13.425781 10.5625 13.792969 11.300781 14.230469 C 11.800781 14.070312 12.328125 13.796875 12.824219 13.613281 C 13.519531 13.351562 14.121094 12.949219 14.769531 12.589844 C 15.773438 12.035156 16.792969 11.613281 17.839844 11.171875 Z M 16.078125 14.042969 C 17.0625 13.78125 18.722656 13 17.921875 11.742188 C 17.910156 11.730469 17.898438 11.722656 17.886719 11.710938 C 16.738281 12.199219 15.621094 12.683594 14.53125 13.328125 C 14.054688 13.613281 13.5625 13.914062 13.027344 14.089844 C 13.996094 14.40625 15.113281 14.300781 16.078125 14.042969 Z M 20.410156 11.664062 C 20.566406 11.269531 19.929688 10.894531 19.578125 10.804688 C 19.476562 10.78125 19.261719 10.726562 19.074219 10.726562 C 18.890625 10.726562 18.734375 10.777344 18.734375 10.945312 C 19.078125 11.097656 19.460938 11.25 19.800781 11.40625 C 19.992188 11.488281 20.222656 11.578125 20.410156 11.664062 Z M 21.628906 19.597656 C 21.738281 19.492188 21.800781 19.34375 21.824219 19.183594 C 21.027344 19.09375 20.324219 18.789062 19.554688 18.546875 C 18.539062 18.226562 17.546875 17.890625 16.570312 17.480469 C 14.894531 16.773438 13.003906 16.09375 11.53125 14.996094 C 11.515625 15.050781 11.5 15.105469 11.484375 15.164062 C 11.828125 15.332031 12.144531 15.488281 12.441406 15.636719 C 12.824219 15.84375 13.167969 16.035156 13.476562 16.203125 C 14.089844 16.546875 14.558594 16.828125 14.917969 17.042969 C 15.632812 17.472656 15.890625 17.65625 15.875 17.6875 C 15.855469 17.71875 15.5625 17.59375 14.824219 17.203125 C 14.457031 17.003906 13.972656 16.742188 13.355469 16.410156 C 13.046875 16.246094 12.707031 16.066406 12.328125 15.867188 C 12.046875 15.726562 11.746094 15.578125 11.421875 15.421875 C 11.410156 15.480469 11.398438 15.542969 11.382812 15.601562 C 11.535156 15.695312 11.683594 15.785156 11.828125 15.871094 C 12.035156 15.992188 12.242188 16.089844 12.4375 16.191406 C 12.828125 16.398438 13.195312 16.566406 13.515625 16.734375 C 14.160156 17.070312 14.636719 17.359375 15.007812 17.578125 C 15.191406 17.695312 15.347656 17.769531 15.484375 17.835938 C 15.621094 17.898438 15.734375 17.957031 15.816406 18.003906 C 15.976562 18.113281 16.035156 18.175781 16.023438 18.1875 C 16.015625 18.203125 15.9375 18.171875 15.769531 18.097656 C 15.683594 18.0625 15.570312 18.023438 15.425781 17.96875 C 15.285156 17.917969 15.109375 17.847656 14.921875 17.742188 C 14.542969 17.542969 14.046875 17.265625 13.40625 16.949219 C 13.085938 16.789062 12.71875 16.625 12.324219 16.421875 C 12.125 16.320312 11.914062 16.21875 11.699219 16.097656 C 11.582031 16.027344 11.460938 15.953125 11.335938 15.878906 C 11.328125 15.949219 11.316406 16.019531 11.308594 16.089844 C 11.496094 16.1875 11.679688 16.277344 11.855469 16.367188 C 12.066406 16.472656 12.269531 16.574219 12.460938 16.667969 C 12.84375 16.871094 13.171875 17.085938 13.464844 17.265625 C 14.054688 17.621094 14.53125 17.882812 14.886719 18.097656 C 15.601562 18.515625 15.859375 18.695312 15.839844 18.730469 C 15.824219 18.761719 15.53125 18.636719 14.796875 18.257812 C 14.433594 18.066406 13.945312 17.820312 13.339844 17.472656 C 13.039062 17.292969 12.714844 17.089844 12.339844 16.894531 C 12.152344 16.800781 11.953125 16.703125 11.742188 16.601562 C 11.59375 16.527344 11.4375 16.445312 11.277344 16.363281 C 11.269531 16.421875 11.265625 16.480469 11.261719 16.535156 C 11.335938 16.636719 11.453125 16.730469 11.566406 16.808594 C 11.714844 16.914062 11.871094 17.003906 12.023438 17.109375 C 12.3125 17.300781 12.574219 17.476562 12.8125 17.632812 C 13.285156 17.949219 13.636719 18.214844 13.910156 18.414062 C 14.453125 18.820312 14.648438 18.988281 14.628906 19.019531 C 14.609375 19.050781 14.378906 18.933594 13.808594 18.570312 C 13.523438 18.382812 13.152344 18.140625 12.679688 17.832031 C 12.441406 17.6875 12.167969 17.511719 11.878906 17.316406 C 11.738281 17.226562 11.582031 17.132812 11.414062 17.023438 C 11.355469 16.976562 11.292969 16.929688 11.234375 16.882812 C 11.230469 16.921875 11.226562 16.964844 11.226562 17.003906 C 11.753906 17.742188 12.65625 18.132812 13.429688 18.558594 C 14.246094 19.011719 15.039062 19.503906 15.789062 20.0625 C 17.414062 21.265625 19.101562 22.367188 20.636719 23.679688 C 20.6875 23.613281 20.734375 23.550781 20.777344 23.480469 C 20.703125 23.378906 20.632812 23.277344 20.554688 23.183594 C 20.441406 23.0625 20.335938 22.9375 20.226562 22.835938 C 20.113281 22.730469 20.003906 22.632812 19.902344 22.539062 C 19.792969 22.449219 19.6875 22.367188 19.589844 22.285156 C 19.191406 21.972656 18.871094 21.734375 18.632812 21.542969 C 18.394531 21.355469 18.238281 21.207031 18.144531 21.109375 C 18.050781 21.011719 18.019531 20.960938 18.03125 20.949219 C 18.042969 20.933594 18.097656 20.957031 18.210938 21.03125 C 18.324219 21.105469 18.492188 21.226562 18.742188 21.394531 C 18.992188 21.570312 19.324219 21.789062 19.738281 22.09375 C 19.839844 22.175781 19.949219 22.257812 20.0625 22.347656 C 20.171875 22.441406 20.285156 22.542969 20.402344 22.648438 C 20.519531 22.757812 20.628906 22.890625 20.753906 23.015625 C 20.8125 23.085938 20.867188 23.164062 20.921875 23.242188 C 20.972656 23.152344 21.023438 23.0625 21.070312 22.972656 C 20.445312 22.523438 19.957031 22.105469 19.546875 21.78125 C 19.109375 21.429688 18.769531 21.164062 18.496094 20.972656 C 18.359375 20.878906 18.25 20.792969 18.152344 20.726562 C 18.054688 20.660156 17.976562 20.609375 17.917969 20.566406 C 17.796875 20.480469 17.75 20.433594 17.757812 20.417969 C 17.765625 20.398438 17.832031 20.417969 17.964844 20.476562 C 18.035156 20.507812 18.121094 20.546875 18.226562 20.601562 C 18.332031 20.652344 18.453125 20.726562 18.601562 20.8125 C 18.886719 20.988281 19.25 21.238281 19.695312 21.582031 C 20.09375 21.878906 20.546875 22.246094 21.105469 22.65625 C 21.054688 22.523438 20.996094 22.410156 20.949219 22.238281 L 20.949219 22.253906 C 20.914062 22.164062 20.882812 22.09375 20.859375 22 C 20.816406 21.957031 20.792969 21.898438 20.792969 21.832031 C 20.59375 21.625 20.367188 21.464844 20.152344 21.324219 C 19.847656 21.128906 19.554688 20.972656 19.296875 20.808594 C 18.785156 20.503906 18.386719 20.261719 18.082031 20.078125 C 17.464844 19.71875 17.242188 19.5625 17.261719 19.527344 C 17.277344 19.5 17.53125 19.601562 18.167969 19.917969 C 18.484375 20.078125 18.898438 20.3125 19.421875 20.605469 C 19.675781 20.757812 19.96875 20.910156 20.289062 21.105469 C 20.492188 21.242188 20.71875 21.394531 20.925781 21.597656 C 20.964844 21.574219 21.003906 21.558594 21.050781 21.566406 C 21.15625 21.578125 21.308594 21.582031 21.410156 21.585938 C 21.410156 21.574219 21.410156 21.558594 21.410156 21.546875 C 21.109375 21.339844 20.832031 21.148438 20.574219 20.980469 C 20.289062 20.804688 20.03125 20.648438 19.800781 20.507812 C 19.328125 20.234375 18.960938 20.019531 18.679688 19.859375 C 18.117188 19.53125 17.914062 19.390625 17.933594 19.355469 C 17.949219 19.324219 18.183594 19.410156 18.769531 19.695312 C 19.0625 19.835938 19.441406 20.035156 19.921875 20.296875 C 20.15625 20.4375 20.417969 20.59375 20.710938 20.761719 C 20.9375 20.910156 21.179688 21.074219 21.4375 21.25 C 21.46875 20.996094 21.507812 20.738281 21.539062 20.484375 C 21.21875 20.363281 20.9375 20.222656 20.679688 20.09375 C 20.515625 20.007812 20.359375 19.9375 20.210938 19.867188 C 20.054688 19.796875 19.90625 19.738281 19.769531 19.683594 C 19.207031 19.453125 18.773438 19.269531 18.441406 19.125 C 17.78125 18.839844 17.539062 18.707031 17.554688 18.675781 C 17.566406 18.640625 17.835938 18.710938 18.511719 18.957031 C 18.851562 19.078125 19.292969 19.242188 19.859375 19.460938 C 20 19.515625 20.148438 19.570312 20.308594 19.632812 C 20.460938 19.707031 20.628906 19.78125 20.792969 19.863281 C 20.933594 19.933594 21.078125 20 21.226562 20.070312 C 21.191406 19.972656 21.210938 19.851562 21.300781 19.78125 C 21.113281 19.726562 20.945312 19.65625 20.789062 19.597656 C 20.535156 19.492188 20.296875 19.410156 20.082031 19.332031 C 19.871094 19.253906 19.683594 19.183594 19.515625 19.121094 C 19.347656 19.058594 19.199219 19.011719 19.074219 18.96875 C 18.566406 18.789062 18.378906 18.699219 18.386719 18.664062 C 18.394531 18.628906 18.601562 18.65625 19.125 18.792969 C 19.257812 18.824219 19.414062 18.863281 19.582031 18.914062 C 19.753906 18.972656 19.945312 19.035156 20.164062 19.105469 C 20.378906 19.175781 20.617188 19.253906 20.882812 19.359375 C 21.113281 19.449219 21.363281 19.542969 21.628906 19.597656 Z M 22.179688 9.34375 C 22.386719 9.414062 22.625 9.472656 22.863281 9.535156 C 21.773438 9.023438 20.671875 8.535156 19.539062 8.128906 C 19.042969 7.953125 18.5 7.691406 17.984375 7.601562 C 17.691406 7.550781 17.53125 8.046875 17.390625 8.261719 C 17.042969 8.789062 16.683594 9.308594 16.210938 9.726562 C 16.4375 9.839844 16.660156 9.949219 16.886719 10.054688 C 17.050781 9.871094 17.214844 9.6875 17.414062 9.542969 C 17.503906 9.480469 17.960938 9.273438 17.730469 9.160156 C 17.59375 9.09375 17.3125 9 17.261719 8.832031 C 17.089844 8.234375 17.929688 8.417969 18.136719 8.007812 C 18.167969 7.941406 18.246094 7.921875 18.3125 7.9375 C 19.660156 8.222656 20.878906 8.902344 22.179688 9.34375 Z M 22.367188 18.0625 C 22.363281 18.046875 22.363281 18.027344 22.367188 18.007812 C 22.394531 17.832031 20.089844 17.410156 19.960938 17.359375 C 19.695312 17.253906 19.425781 17.144531 19.242188 16.917969 C 18.800781 16.371094 18.722656 16.882812 18.375 16.8125 C 17.53125 16.644531 16.558594 16.214844 15.777344 15.835938 C 14.761719 15.351562 13.8125 14.746094 12.757812 14.359375 C 12.714844 14.34375 12.691406 14.320312 12.671875 14.289062 C 12.644531 14.273438 12.613281 14.265625 12.582031 14.25 C 12.527344 14.273438 12.46875 14.300781 12.414062 14.324219 C 13.089844 14.648438 13.683594 15.113281 14.371094 15.429688 C 15.3125 15.851562 16.269531 16.207031 17.222656 16.605469 C 18.097656 16.96875 18.96875 17.394531 19.890625 17.652344 C 20.617188 17.859375 21.355469 17.972656 22.074219 18.199219 C 22.171875 18.152344 22.269531 18.109375 22.367188 18.0625 Z M 24.1875 10.902344 C 24.671875 10.414062 23.648438 10.125 23.386719 10.042969 C 22.761719 9.851562 22.136719 9.667969 21.523438 9.441406 C 20.609375 9.097656 19.71875 8.617188 18.773438 8.367188 C 18.335938 8.25 18.117188 8.484375 17.695312 8.625 C 17.523438 8.679688 18.070312 8.992188 18.078125 9.003906 C 18.175781 9.136719 18.207031 9.171875 18.140625 9.316406 C 18.011719 9.632812 17.496094 9.941406 17.191406 10.199219 C 17.632812 10.40625 18.070312 10.609375 18.515625 10.808594 C 18.609375 10.285156 19.445312 10.410156 19.824219 10.539062 C 20.351562 10.71875 20.910156 11.265625 20.6875 11.800781 C 21.355469 12.121094 22.007812 12.46875 22.660156 12.820312 C 22.707031 12.78125 22.734375 12.761719 22.773438 12.75 C 22.628906 12.441406 22.636719 12.070312 22.902344 11.804688 C 23.226562 11.480469 23.554688 12.066406 23.808594 11.433594 C 23.90625 11.191406 24 11.09375 24.1875 10.902344 Z M 24.773438 11.746094 C 25.007812 11.367188 25.238281 11 25.539062 10.675781 C 25.15625 10.457031 24.738281 10.285156 24.316406 10.121094 C 24.332031 10.136719 24.351562 10.148438 24.367188 10.160156 C 25.058594 10.75 24.265625 10.9375 24.109375 11.515625 C 24.066406 11.675781 24.003906 12.035156 23.789062 12.089844 C 23.5 12.164062 22.449219 11.855469 23.15625 12.785156 C 23.214844 12.859375 23.15625 13.003906 23.0625 13.015625 C 23.054688 13.019531 23.046875 13.023438 23.035156 13.027344 C 23.195312 13.113281 23.351562 13.199219 23.511719 13.289062 C 23.960938 12.796875 24.417969 12.320312 24.773438 11.746094 Z M 25.640625 15.722656 C 25.683594 15.722656 25.730469 15.726562 25.773438 15.730469 C 25.492188 15.574219 25.210938 15.417969 24.910156 15.269531 C 24.097656 14.875 23.277344 14.527344 22.46875 14.125 C 21.039062 13.410156 19.617188 12.507812 18.359375 11.511719 C 18.3125 11.53125 18.261719 11.554688 18.210938 11.574219 C 18.734375 11.988281 19.273438 12.332031 19.851562 12.660156 C 19.941406 12.710938 19.953125 12.832031 19.882812 12.90625 C 19.328125 13.5 23.351562 15.101562 23.75 15.296875 C 24.085938 15.457031 24.828125 16.046875 25.21875 15.84375 C 25.425781 15.734375 25.417969 15.730469 25.640625 15.722656 Z M 25.871094 10.507812 C 25.957031 10.558594 25.980469 10.679688 25.90625 10.75 C 25.414062 11.210938 25.160156 11.800781 24.765625 12.332031 C 24.46875 12.726562 24.125 13.082031 23.792969 13.445312 C 23.8125 13.457031 23.832031 13.46875 23.855469 13.480469 C 23.863281 13.472656 23.871094 13.460938 23.878906 13.453125 C 24.511719 12.917969 25.195312 12.433594 25.625 11.703125 C 25.867188 11.289062 26.085938 10.867188 26.378906 10.492188 C 23.554688 9.078125 20.507812 7.714844 17.429688 6.992188 C 17.042969 7.90625 16.476562 8.832031 15.710938 9.480469 C 15.777344 9.511719 15.84375 9.546875 15.914062 9.578125 C 16.539062 9.078125 17.277344 8.160156 17.484375 7.410156 C 17.5 7.359375 17.542969 7.308594 17.59375 7.300781 C 18.152344 7.183594 18.808594 7.539062 19.328125 7.722656 C 20.03125 7.972656 20.726562 8.242188 21.414062 8.539062 C 22.316406 8.929688 23.199219 9.445312 24.121094 9.773438 C 24.722656 9.988281 25.328125 10.164062 25.871094 10.507812 Z M 26.054688 16.582031 C 26.207031 16.507812 26.355469 16.429688 26.488281 16.347656 C 26.054688 16.117188 25.648438 15.980469 25.140625 16.207031 C 24.992188 16.269531 24.773438 16.234375 24.636719 16.152344 C 23.8125 15.65625 22.960938 15.300781 22.078125 14.925781 C 21.582031 14.710938 19.136719 13.726562 19.546875 12.851562 C 19.253906 12.710938 18.996094 12.648438 18.75 12.398438 C 18.644531 12.289062 18.523438 12.195312 18.402344 12.101562 C 18.570312 12.960938 17.820312 13.730469 16.960938 14.078125 C 16.070312 14.441406 15.015625 14.65625 14.015625 14.585938 C 14.816406 15 15.59375 15.464844 16.441406 15.78125 C 16.972656 15.980469 17.535156 16.121094 18.042969 16.371094 C 18.347656 16.523438 18.761719 16.328125 19.09375 16.398438 C 19.277344 16.4375 19.34375 16.578125 19.460938 16.695312 C 19.851562 17.085938 20.28125 17.121094 20.78125 17.175781 C 21.0625 17.203125 21.320312 17.230469 21.546875 17.402344 C 21.890625 17.667969 22.59375 17.414062 22.671875 17.871094 C 22.914062 17.753906 23.167969 17.671875 23.425781 17.601562 C 24.296875 17.242188 25.175781 16.917969 26.054688 16.582031 Z M 26.183594 13.972656 C 26.246094 13.945312 26.53125 13.835938 26.503906 13.734375 C 26.457031 13.566406 26.367188 13.417969 26.265625 13.277344 C 26.117188 13.394531 25.96875 13.507812 25.824219 13.625 C 25.578125 13.824219 25.316406 13.996094 25.035156 14.128906 C 25.066406 14.148438 25.09375 14.164062 25.125 14.179688 C 25.199219 14.21875 25.273438 14.261719 25.351562 14.300781 C 25.605469 14.148438 25.914062 14.09375 26.183594 13.972656 Z M 26.207031 12.632812 C 26.328125 12.550781 26.957031 12.195312 26.75 12.03125 C 26.589844 11.898438 26.402344 11.800781 26.230469 11.6875 C 26.082031 11.941406 25.933594 12.195312 25.761719 12.425781 C 25.367188 12.945312 24.832031 13.332031 24.335938 13.746094 C 24.367188 13.765625 24.398438 13.78125 24.429688 13.800781 C 25.164062 13.613281 25.613281 13.046875 26.207031 12.632812 Z M 28.554688 16.121094 C 28.246094 15.949219 27.824219 15.929688 27.515625 15.839844 C 27.15625 15.738281 26.800781 15.585938 26.457031 15.429688 C 25.554688 15.015625 24.683594 14.539062 23.824219 14.039062 C 22.226562 13.117188 20.601562 12.328125 18.933594 11.566406 C 20.210938 12.550781 21.683594 13.488281 23.144531 14.082031 C 24.585938 14.667969 25.882812 15.582031 27.335938 16.125 C 27.488281 16.179688 27.476562 16.363281 27.332031 16.425781 C 26.949219 16.582031 26.5625 16.730469 26.171875 16.878906 C 25.730469 17.09375 25.261719 17.273438 24.835938 17.464844 C 24.460938 17.628906 24.0625 17.730469 23.667969 17.839844 C 23.199219 18.03125 22.734375 18.234375 22.273438 18.449219 C 22.246094 18.515625 22.183594 18.558594 22.101562 18.53125 C 21.148438 18.214844 20.148438 18.105469 19.207031 17.753906 C 18.3125 17.417969 17.453125 17 16.554688 16.671875 C 15.757812 16.382812 14.992188 16.042969 14.214844 15.699219 C 13.488281 15.371094 12.875 14.871094 12.15625 14.546875 C 12.117188 14.527344 12.097656 14.5 12.085938 14.472656 C 12.003906 14.507812 11.921875 14.546875 11.84375 14.582031 C 13.210938 15.582031 14.933594 16.226562 16.480469 16.882812 C 17.4375 17.285156 18.394531 17.636719 19.382812 17.949219 C 20.257812 18.222656 21.085938 18.617188 22.007812 18.679688 C 23.359375 18.46875 24.578125 17.921875 25.792969 17.316406 C 26.703125 16.863281 27.617188 16.484375 28.554688 16.121094 Z M 28.28125 15.484375 C 28.257812 15.382812 28.238281 15.28125 28.207031 15.183594 C 28.085938 14.761719 27.855469 14.769531 27.492188 14.800781 C 27.195312 14.828125 26.757812 14.835938 26.363281 14.839844 C 26.84375 15.074219 27.339844 15.277344 27.847656 15.382812 C 27.992188 15.414062 28.140625 15.445312 28.28125 15.484375 Z M 28.898438 17.792969 C 28.957031 17.636719 28.976562 17.585938 28.800781 17.527344 C 28.753906 17.511719 28.71875 17.484375 28.691406 17.457031 C 28.605469 17.492188 28.523438 17.53125 28.449219 17.5625 C 28.308594 17.636719 28.183594 17.699219 28.066406 17.761719 C 27.835938 17.878906 27.660156 17.976562 27.515625 18.035156 C 27.226562 18.160156 27.109375 18.1875 27.09375 18.15625 C 27.078125 18.121094 27.167969 18.039062 27.425781 17.875 C 27.558594 17.792969 27.726562 17.683594 27.949219 17.550781 C 28.0625 17.484375 28.191406 17.414062 28.332031 17.335938 C 28.421875 17.292969 28.515625 17.25 28.613281 17.207031 C 28.613281 17.179688 28.613281 17.152344 28.617188 17.121094 C 28.660156 16.957031 28.667969 16.792969 28.6875 16.628906 C 26.605469 17.488281 24.570312 18.746094 22.347656 19.144531 C 22.332031 19.433594 22.226562 19.707031 22.042969 19.910156 C 22.300781 19.824219 22.539062 19.726562 22.757812 19.625 C 23.128906 19.453125 23.460938 19.28125 23.765625 19.140625 C 24.078125 19.003906 24.355469 18.886719 24.597656 18.78125 C 24.722656 18.730469 24.835938 18.679688 24.945312 18.632812 C 25.050781 18.589844 25.15625 18.554688 25.25 18.523438 C 26.007812 18.253906 26.300781 18.175781 26.316406 18.207031 C 26.328125 18.242188 26.054688 18.382812 25.316406 18.691406 C 25.226562 18.730469 25.125 18.769531 25.023438 18.820312 C 24.914062 18.871094 24.804688 18.921875 24.6875 18.976562 C 24.445312 19.089844 24.175781 19.214844 23.875 19.355469 C 23.574219 19.5 23.246094 19.679688 22.863281 19.855469 C 22.601562 19.976562 22.316406 20.101562 21.996094 20.203125 C 22.046875 20.242188 22.078125 20.308594 22.070312 20.398438 C 22.058594 20.476562 22.046875 20.5625 22.039062 20.644531 C 22.347656 20.539062 22.632812 20.421875 22.902344 20.308594 C 23.300781 20.140625 23.65625 19.988281 23.984375 19.855469 C 24.304688 19.71875 24.59375 19.601562 24.847656 19.492188 C 25.101562 19.386719 25.316406 19.277344 25.507812 19.195312 C 26.269531 18.847656 26.566406 18.738281 26.585938 18.773438 C 26.601562 18.804688 26.332031 18.972656 25.589844 19.359375 C 25.402344 19.453125 25.1875 19.574219 24.9375 19.691406 C 24.683594 19.800781 24.398438 19.929688 24.078125 20.074219 C 23.753906 20.214844 23.398438 20.378906 23.003906 20.542969 C 22.699219 20.671875 22.371094 20.816406 22 20.933594 C 21.972656 21.121094 21.949219 21.308594 21.933594 21.5 C 22.03125 21.457031 22.128906 21.410156 22.21875 21.359375 C 22.449219 21.242188 22.667969 21.117188 22.898438 21.019531 C 23.335938 20.832031 23.730469 20.660156 24.085938 20.507812 C 24.800781 20.203125 25.355469 19.96875 25.785156 19.792969 C 26.640625 19.445312 26.972656 19.335938 26.988281 19.367188 C 27 19.402344 26.691406 19.574219 25.855469 19.964844 C 25.4375 20.160156 24.886719 20.410156 24.179688 20.726562 C 23.828125 20.886719 23.433594 21.0625 22.996094 21.253906 C 22.789062 21.34375 22.574219 21.46875 22.339844 21.589844 C 22.207031 21.65625 22.066406 21.726562 21.917969 21.789062 C 21.917969 21.796875 21.914062 21.804688 21.914062 21.8125 C 22.207031 21.734375 22.46875 21.644531 22.707031 21.566406 C 23.183594 21.402344 23.558594 21.269531 23.847656 21.175781 C 24.425781 20.988281 24.660156 20.960938 24.667969 20.992188 C 24.679688 21.03125 24.46875 21.121094 23.910156 21.351562 C 23.628906 21.460938 23.265625 21.617188 22.785156 21.792969 C 22.421875 21.925781 21.988281 22.078125 21.46875 22.1875 C 21.519531 22.320312 21.574219 22.457031 21.628906 22.589844 C 22.929688 22.015625 23.363281 21.875 23.390625 21.933594 C 23.414062 21.996094 23.015625 22.234375 21.703125 22.835938 C 21.707031 22.898438 21.683594 22.949219 21.648438 22.988281 C 21.648438 22.992188 21.644531 22.996094 21.644531 22.996094 C 21.605469 23.070312 21.566406 23.140625 21.527344 23.214844 C 22.597656 22.617188 23.738281 22.0625 24.832031 21.574219 C 25.40625 21.320312 25.992188 21.105469 26.597656 20.925781 C 26.929688 20.828125 28.691406 20.523438 28.621094 19.984375 C 28.207031 20.136719 27.851562 20.265625 27.554688 20.371094 C 27.199219 20.484375 26.917969 20.558594 26.703125 20.617188 C 26.277344 20.726562 26.105469 20.746094 26.097656 20.710938 C 26.089844 20.675781 26.242188 20.59375 26.652344 20.4375 C 26.855469 20.359375 27.128906 20.269531 27.472656 20.148438 C 27.796875 20.019531 28.191406 19.871094 28.65625 19.691406 C 28.699219 19.464844 28.785156 19.246094 28.855469 19.019531 C 28.800781 19.042969 28.753906 19.0625 28.703125 19.082031 C 28.585938 19.136719 28.484375 19.183594 28.390625 19.226562 C 28.199219 19.316406 28.050781 19.386719 27.933594 19.429688 C 27.695312 19.519531 27.597656 19.53125 27.582031 19.5 C 27.566406 19.464844 27.640625 19.394531 27.851562 19.265625 C 27.957031 19.203125 28.097656 19.113281 28.28125 19.015625 C 28.375 18.964844 28.480469 18.910156 28.597656 18.851562 C 28.671875 18.816406 28.753906 18.78125 28.839844 18.746094 C 28.800781 18.710938 28.765625 18.667969 28.730469 18.632812 C 28.714844 18.613281 28.699219 18.589844 28.691406 18.574219 C 28.546875 18.621094 28.417969 18.65625 28.308594 18.691406 C 28.101562 18.753906 27.945312 18.804688 27.832031 18.847656 C 27.714844 18.890625 27.636719 18.925781 27.582031 18.945312 C 27.527344 18.960938 27.496094 18.957031 27.484375 18.945312 C 27.472656 18.929688 27.484375 18.902344 27.523438 18.859375 C 27.5625 18.8125 27.636719 18.75 27.75 18.683594 C 27.867188 18.613281 28.023438 18.539062 28.230469 18.464844 C 28.355469 18.414062 28.507812 18.367188 28.664062 18.308594 C 28.730469 18.132812 28.832031 17.972656 28.898438 17.792969 Z M 29.144531 17.117188 C 29.347656 17.238281 29.492188 17.425781 29.457031 17.695312 C 29.429688 17.941406 29.292969 18.144531 29.195312 18.371094 C 29.335938 18.515625 29.453125 18.65625 29.425781 18.878906 C 29.375 19.234375 29.191406 19.550781 29.140625 19.902344 C 29.140625 19.914062 29.136719 19.921875 29.136719 19.933594 C 29.246094 21.089844 27.214844 21.265625 26.445312 21.515625 C 25.355469 21.867188 24.382812 22.402344 23.367188 22.921875 C 22.5625 23.332031 21.71875 23.6875 20.945312 24.152344 C 20.933594 24.15625 20.921875 24.164062 20.910156 24.167969 C 20.894531 24.183594 20.882812 24.203125 20.867188 24.21875 C 20.785156 24.308594 20.683594 24.320312 20.597656 24.28125 C 20.558594 24.273438 20.515625 24.253906 20.476562 24.21875 C 19.359375 23.242188 18.152344 22.324219 16.921875 21.453125 C 16.914062 21.472656 16.898438 21.492188 16.882812 21.511719 C 16.027344 22.433594 15.191406 23.363281 14.121094 24.042969 C 14 24.121094 13.882812 24.082031 13.808594 23.996094 C 12.511719 23.367188 11.097656 23.085938 9.742188 22.617188 C 8.597656 22.222656 7.460938 21.769531 6.402344 21.179688 C 5.589844 20.726562 4.753906 20.269531 3.960938 19.789062 C 3.617188 19.582031 3.101562 19.316406 2.972656 18.898438 C 2.394531 18.796875 1.808594 18.785156 1.230469 18.695312 C 1.089844 18.675781 1.011719 18.5 1.046875 18.378906 C 1.167969 17.953125 1.265625 17.523438 1.394531 17.101562 C 1.367188 17.058594 1.355469 17.015625 1.363281 16.972656 C 1.546875 15.480469 1.636719 13.984375 1.722656 12.484375 C 1.445312 12.375 1.164062 12.273438 0.882812 12.179688 C 0.847656 12.167969 0.824219 12.152344 0.800781 12.136719 C 0.671875 12.132812 0.542969 12.046875 0.539062 11.882812 C 0.523438 11.484375 0.617188 11.09375 0.625 10.695312 C 0.625 10.671875 0.628906 10.65625 0.632812 10.636719 C 0.621094 10.523438 0.675781 10.410156 0.816406 10.375 C 0.886719 10.359375 0.980469 10.34375 1.027344 10.292969 C 1.035156 10.28125 1.042969 10.277344 1.046875 10.277344 C 1.046875 10.273438 1.042969 10.269531 1.046875 10.261719 C 1.039062 10.292969 1.035156 10.257812 1.035156 10.25 C 1 10.15625 0.882812 10.078125 0.777344 10.03125 C 0.734375 10.007812 0.703125 9.980469 0.679688 9.949219 C 0.613281 9.875 0.582031 9.765625 0.640625 9.652344 C 0.816406 9.296875 1.019531 8.957031 1.136719 8.574219 C 1.046875 8.503906 0.945312 8.449219 0.835938 8.40625 C 0.71875 8.347656 0.664062 8.160156 0.742188 8.046875 C 1.425781 7.089844 2.976562 6.921875 4.03125 6.585938 C 4.957031 6.292969 5.867188 5.945312 6.792969 5.65625 C 7.59375 5.40625 8.421875 5.226562 9.15625 4.792969 C 9.28125 4.71875 9.433594 4.769531 9.507812 4.886719 C 10.613281 6.597656 12.609375 7.792969 14.355469 8.761719 C 14.636719 8.917969 14.917969 9.070312 15.207031 9.21875 C 16.03125 8.609375 16.636719 7.59375 17.007812 6.660156 C 17.035156 6.523438 17.152344 6.394531 17.328125 6.433594 C 20.613281 7.167969 23.886719 8.652344 26.878906 10.164062 C 26.902344 10.175781 26.921875 10.191406 26.941406 10.207031 C 27.050781 10.296875 27.097656 10.460938 26.976562 10.59375 C 26.785156 10.792969 26.632812 11.011719 26.492188 11.242188 C 26.984375 11.589844 27.757812 12.03125 27.054688 12.644531 C 26.929688 12.753906 26.800781 12.859375 26.671875 12.960938 C 26.949219 13.34375 27.214844 13.835938 26.789062 14.214844 C 26.738281 14.257812 26.683594 14.292969 26.628906 14.328125 C 26.832031 14.328125 27.03125 14.320312 27.222656 14.304688 C 27.5 14.28125 27.867188 14.195312 28.132812 14.289062 C 28.714844 14.484375 28.746094 15.199219 28.855469 15.714844 C 28.976562 15.789062 29.089844 15.878906 29.191406 15.996094 C 29.304688 16.0625 29.378906 16.199219 29.289062 16.347656 C 29.160156 16.566406 29.175781 16.859375 29.144531 17.117188 " fill-opacity="1" fill-rule="nonzero"/></g><path fill="#ffffff" d="M 21.558594 16.210938 C 22.136719 15.542969 19.65625 14.308594 19.113281 15.152344 C 18.648438 16.183594 20.96875 16.894531 21.558594 16.210938 Z M 18.886719 14.941406 C 19.660156 13.9375 22.605469 15.203125 21.859375 16.335938 C 21.140625 17.433594 18.28125 16.464844 18.820312 15.058594 C 18.824219 15.039062 18.832031 15.019531 18.84375 14.996094 C 18.855469 14.972656 18.867188 14.953125 18.886719 14.941406 " fill-opacity="1" fill-rule="nonzero"/><path fill="#ffffff" d="M 8.980469 9.382812 C 9.421875 9.167969 9.269531 8.777344 9.03125 8.449219 C 8.675781 8.058594 7.75 7.882812 7.34375 8.292969 C 6.9375 8.710938 7.277344 9.207031 7.730469 9.371094 C 8.105469 9.503906 8.605469 9.570312 8.980469 9.382812 Z M 9.277344 8.265625 C 9.648438 8.757812 9.738281 9.394531 9.085938 9.675781 C 8.566406 9.902344 7.816406 9.835938 7.339844 9.523438 C 6.816406 9.175781 6.652344 8.464844 7.183594 8.023438 C 7.734375 7.570312 8.796875 7.714844 9.253906 8.234375 C 9.261719 8.242188 9.265625 8.25 9.265625 8.253906 C 9.269531 8.261719 9.277344 8.261719 9.277344 8.265625 " fill-opacity="1" fill-rule="nonzero"/></svg>